<?xml version="1.0" standalone="no"?>
<!DOCTYPE svg PUBLIC "-//W3C//DTD SVG 20010904//EN"
 "http://www.w3.org/TR/2001/REC-SVG-20010904/DTD/svg10.dtd">
<svg version="1.0" xmlns="http://www.w3.org/2000/svg"
 width="800.000000pt" height="800.000000pt" viewBox="0 0 800.000000 800.000000"
 preserveAspectRatio="xMidYMid meet">
<metadata>
Created by potrace 1.14, written by Peter Selinger 2001-2017
</metadata>
<g transform="translate(0.000000,800.000000) scale(0.100000,-0.100000)"
fill="#000000" stroke="none">
<path d="M3819 7756 c-2 -2 -52 -7 -110 -10 -58 -4 -117 -9 -130 -11 -13 -2
-46 -6 -74 -10 -83 -10 -119 -15 -141 -20 -12 -3 -39 -7 -60 -11 -130 -20
-520 -131 -649 -184 -16 -7 -39 -16 -50 -20 -161 -63 -396 -179 -530 -263
-152 -95 -389 -259 -415 -287 -3 -3 -18 -16 -35 -29 -133 -101 -386 -354 -515
-511 -25 -30 -47 -57 -50 -60 -14 -14 -132 -176 -185 -255 -127 -191 -224
-366 -315 -570 -41 -93 -57 -132 -87 -215 -61 -171 -148 -485 -167 -604 -4
-21 -8 -48 -11 -60 -5 -22 -10 -58 -20 -141 -4 -27 -8 -60 -10 -73 -26 -159
-26 -685 0 -843 2 -13 6 -46 10 -74 10 -83 15 -119 20 -141 3 -12 7 -39 11
-60 23 -145 161 -625 188 -651 3 -4 6 -12 6 -19 0 -16 48 -125 129 -294 85
-179 216 -392 355 -580 39 -52 73 -97 76 -100 3 -3 25 -30 50 -60 127 -156
384 -410 515 -511 17 -13 32 -26 35 -29 17 -17 173 -130 275 -197 198 -131
291 -183 542 -299 28 -13 54 -24 57 -24 4 0 25 -8 49 -19 84 -37 104 -44 247
-91 123 -41 354 -102 440 -116 14 -2 45 -9 70 -14 45 -9 73 -14 165 -25 28 -4
61 -8 74 -10 156 -26 686 -26 842 0 13 2 47 6 74 10 83 10 119 15 141 20 12 3
39 7 60 10 21 4 47 8 56 11 9 3 25 6 35 8 135 27 507 138 555 166 10 6 22 10
28 10 8 0 33 10 145 60 205 91 358 176 561 310 89 59 250 175 264 190 3 3 19
16 35 29 133 101 386 354 515 511 25 30 47 57 50 60 3 3 37 48 76 100 196 265
351 540 474 845 23 56 81 218 99 278 20 63 86 322 96 377 3 14 7 36 10 50 15
76 18 95 30 195 4 28 8 61 10 74 26 156 26 686 0 842 -2 13 -6 47 -10 74 -10
83 -15 119 -20 141 -3 12 -7 39 -11 60 -8 55 -80 343 -105 423 -18 58 -76 221
-99 276 -100 249 -216 466 -365 690 -53 79 -171 241 -185 255 -3 3 -25 30 -50
60 -124 152 -324 352 -497 497 -147 123 -398 294 -598 406 -42 24 -213 107
-280 137 -113 50 -137 60 -148 60 -7 0 -17 4 -22 8 -33 30 -518 168 -655 187
-24 4 -47 8 -50 10 -3 1 -30 6 -61 9 -31 4 -66 8 -77 11 -12 2 -52 7 -89 10
-37 4 -81 9 -98 11 -39 5 -491 15 -496 10z m352 -147 c314 -31 625 -147 879
-327 126 -89 328 -291 418 -418 438 -618 451 -1431 33 -2056 -265 -396 -682
-676 -1141 -766 -131 -26 -168 -30 -410 -42 -113 -6 -237 -18 -294 -30 -489
-97 -904 -377 -1179 -795 -326 -496 -381 -1162 -140 -1711 233 -534 705 -920
1283 -1050 l105 -24 -70 6 c-38 3 -117 12 -175 20 -1147 165 -2151 877 -2689
1906 -411 785 -519 1694 -304 2558 259 1045 982 1926 1965 2394 535 255 1211
387 1719 335z m-56 -4874 c39 -8 99 -29 135 -47 88 -43 205 -160 248 -248 138
-282 26 -616 -253 -750 -358 -174 -771 64 -802 460 -12 162 44 309 166 431
142 142 315 194 506 154z"/>
<path d="M3880 6364 c-198 -42 -367 -201 -426 -399 -23 -76 -23 -229 -1 -301
77 -254 291 -417 547 -417 377 0 649 363 544 726 -41 139 -158 278 -287 342
-124 61 -248 77 -377 49z"/>
</g>
</svg>
